# xmcd
#
# Track frame offsets: 
#        150
#        26110
#        43042
#        71137
#        88372
#        105408
#        130651
#
# Disc length: 1922 seconds
#
# Revision: 0
# Processed by: cddbd v1.5.2PL0 Copyright (c) Steve Scherf et al.
# Submitted via: ExactAudioCopy v0.95b4
#
DISCID=5e078007
DTITLE=Shalamar - Disco Gardens
DYEAR=1977
DGENRE=R&B
TTITLE0=Tossing, Turning and Swinging
TTITLE1=Shalamar Disco Gardens
TTITLE2=Take That To The Bank
TTITLE3=Stay Close To Love
TTITLE4=Leave It All Up To Love
TTITLE5=Lovely Lady
TTITLE6=Cindy, Cindy
EXTD=
EXTT0=
EXTT1=
EXTT2=
EXTT3=
EXTT4=
EXTT5=
EXTT6=
PLAYORDER=
